<?xml version="1.0" encoding="UTF-8" standalone="no"?><!DOCTYPE svg PUBLIC "-//W3C//DTD SVG 1.1//EN" "http://www.w3.org/Graphics/SVG/1.1/DTD/svg11.dtd"><svg width="100%" height="100%" viewBox="0 0 465 100" version="1.1" xmlns="http://www.w3.org/2000/svg" xmlns:xlink="http://www.w3.org/1999/xlink" xml:space="preserve" xmlns:serif="http://www.serif.com/" style="fill-rule:evenodd;clip-rule:evenodd;stroke-linejoin:round;stroke-miterlimit:2;"><path d="M81.079,40.864c3.278,1.874 5.301,5.36 5.301,9.136c0,3.776 -2.023,7.262 -5.301,9.136l-60.337,34.478c-3.256,1.861 -7.257,1.847 -10.501,-0.035c-3.244,-1.883 -5.241,-5.35 -5.241,-9.101l-0,-68.956c-0,-3.751 1.997,-7.218 5.241,-9.101c3.244,-1.882 7.245,-1.896 10.501,-0.035l60.337,34.478Zm-32.238,11.766l21.92,0c1.452,0 2.631,-1.178 2.631,-2.63c-0,-1.452 -1.179,-2.63 -2.631,-2.63l-56.116,-0c-1.452,-0 -2.63,1.178 -2.63,2.63c-0,1.452 1.178,2.63 2.63,2.63l25.428,0l-0,14.029c-0,0.392 0.259,0.736 0.635,0.843c0.376,0.108 0.778,-0.046 0.985,-0.378l2.764,-4.422l2.764,4.422c0.207,0.332 0.609,0.486 0.985,0.378c0.376,-0.107 0.635,-0.451 0.635,-0.843l-0,-14.029Zm-0,-17.536c-0,-1.452 -1.179,-2.63 -2.63,-2.63l-31.566,-0c-1.452,-0 -2.63,1.178 -2.63,2.63c-0,1.452 1.178,2.631 2.63,2.631l31.566,-0c1.451,-0 2.63,-1.179 2.63,-2.631Zm-15.783,29.812c0,-1.452 -1.178,-2.631 -2.63,-2.631l-15.783,0c-1.452,0 -2.63,1.179 -2.63,2.631c-0,1.452 1.178,2.63 2.63,2.63l15.783,0c1.452,0 2.63,-1.178 2.63,-2.63Z" style="fill:#256ba2;"/><g id="text"><g id="media"><path d="M433.866,75.372c-1.386,-0 -2.699,-0.38 -3.939,-1.139c-1.24,-0.759 -2.244,-1.738 -3.012,-2.939c-0.768,-1.2 -1.152,-2.445 -1.152,-3.737c-0,-1.938 0.577,-3.521 1.73,-4.749c1.154,-1.228 2.892,-2.337 5.214,-3.327l8.056,-3.441c1.153,-0.493 1.854,-0.935 2.103,-1.328c0.25,-0.394 0.387,-1.151 0.413,-2.271l0.125,-5.104c0.057,-1.594 -0.273,-2.883 -0.992,-3.867c-0.718,-0.984 -1.786,-1.476 -3.205,-1.476c-0.768,-0 -1.553,0.152 -2.354,0.456c-0.801,0.305 -1.427,0.671 -1.877,1.1c-0.25,0.23 -0.417,0.529 -0.501,0.895c-0.084,0.366 -0.126,0.744 -0.126,1.136c0,0.294 0.023,0.657 0.068,1.088c0.045,0.431 0.068,0.793 0.068,1.086c-0,0.352 -0.432,0.788 -1.295,1.31c-0.863,0.522 -1.844,0.985 -2.944,1.392c-1.099,0.406 -2.032,0.609 -2.798,0.609c-0.383,-0 -0.701,-0.136 -0.953,-0.406c-0.253,-0.271 -0.379,-0.617 -0.379,-1.038c0,-0.922 0.311,-1.861 0.932,-2.815c0.622,-0.955 1.59,-1.973 2.907,-3.053c1.452,-1.242 3.035,-2.34 4.75,-3.294c1.714,-0.954 3.4,-1.714 5.056,-2.279c1.657,-0.566 3.093,-0.849 4.309,-0.849c2.739,-0 4.953,0.909 6.64,2.727c1.688,1.817 2.486,4.186 2.396,7.105l-0.432,18.557c-0.058,1.274 0.185,2.341 0.727,3.2c0.542,0.86 1.226,1.29 2.052,1.29c1.22,0 2.206,-0.348 2.961,-1.045c0.225,-0.225 0.424,-0.338 0.597,-0.338c0.288,0 0.526,0.095 0.715,0.283c0.189,0.189 0.283,0.427 0.283,0.715c-0,0.667 -0.46,1.459 -1.379,2.377c-1.017,1.018 -2.115,1.8 -3.291,2.348c-1.177,0.547 -2.354,0.821 -3.529,0.821c-3.031,-0 -5.514,-1.593 -7.45,-4.78l-0.212,0c-1.902,1.683 -3.654,2.9 -5.256,3.652c-1.602,0.752 -3.277,1.128 -5.026,1.128Zm4.776,-5.147c0.804,-0 1.482,-0.132 2.036,-0.396c0.553,-0.264 1.051,-0.649 1.494,-1.156c0.225,-0.257 0.407,-0.59 0.545,-1.001c0.138,-0.41 0.22,-0.973 0.246,-1.687l0.221,-5.567c0.026,-0.571 -0.035,-0.96 -0.181,-1.169c-0.147,-0.209 -0.362,-0.314 -0.645,-0.314c-0.115,0 -0.277,0.021 -0.486,0.063c-0.209,0.042 -0.464,0.134 -0.767,0.275c-2.135,0.905 -3.666,1.837 -4.594,2.796c-0.928,0.96 -1.392,2.215 -1.392,3.765c0,1.593 0.383,2.723 1.15,3.39c0.766,0.667 1.557,1.001 2.373,1.001Z" style="fill:#256ba2;fill-rule:nonzero;"/><path d="M405.32,74.421c-0.461,-0 -0.835,-0.101 -1.123,-0.303c-0.288,-0.201 -0.432,-0.475 -0.432,-0.821c-0,-0.461 0.172,-0.806 0.518,-1.037c0.346,-0.23 0.749,-0.403 1.21,-0.519c1.383,-0.345 2.377,-0.72 2.982,-1.123c0.605,-0.404 0.908,-1.095 0.908,-2.075l-0,-18.756c-0,-1.844 -0.288,-3.227 -0.864,-4.149c-0.577,-0.922 -1.556,-1.498 -2.939,-1.729c-0.288,-0.058 -0.519,-0.216 -0.692,-0.475c-0.173,-0.26 -0.259,-0.562 -0.259,-0.908c-0,-0.807 0.317,-1.239 0.951,-1.297c2.766,-0.576 5.172,-1.368 7.217,-2.377c2.046,-1.008 3.616,-1.8 4.711,-2.377c0.807,-0.403 1.325,-0.605 1.556,-0.605c0.634,0 0.951,0.289 0.951,0.865c-0.058,0.807 -0.173,1.916 -0.346,3.328c-0.173,1.411 -0.332,2.91 -0.476,4.494c-0.144,1.585 -0.216,3.069 -0.216,4.452l0,19.448c0,0.864 0.317,1.527 0.951,1.988c0.634,0.461 1.642,0.893 3.025,1.296c0.461,0.173 0.865,0.361 1.211,0.562c0.345,0.202 0.518,0.533 0.518,0.994c0,0.692 -0.49,1.038 -1.469,1.038c-1.095,-0 -2.147,-0.029 -3.155,-0.087c-1.009,-0.058 -1.988,-0.115 -2.939,-0.173c-0.951,-0.057 -1.945,-0.086 -2.982,-0.086c-0.98,-0 -1.93,0.029 -2.852,0.086c-0.922,0.058 -1.859,0.13 -2.81,0.216c-0.95,0.087 -2.002,0.13 -3.155,0.13Zm8.644,-43.564c-1.671,0 -3.083,-0.576 -4.235,-1.729c-1.153,-1.152 -1.729,-2.535 -1.729,-4.149c-0,-1.786 0.576,-3.255 1.729,-4.408c1.152,-1.152 2.564,-1.728 4.235,-1.728c1.729,-0 3.169,0.576 4.322,1.728c1.152,1.153 1.729,2.622 1.729,4.408c-0,1.614 -0.577,2.997 -1.729,4.149c-1.153,1.153 -2.593,1.729 -4.322,1.729Z" style="fill:#256ba2;fill-rule:nonzero;"/><path d="M389.031,75.804c-0.147,-0 -0.373,-0.163 -0.68,-0.488c-0.307,-0.326 -0.461,-0.578 -0.461,-0.757c0.095,-0.798 0.191,-1.635 0.288,-2.511c0.096,-0.876 0.16,-1.641 0.193,-2.295l-0,-0.518c-1.087,1.642 -2.629,3.075 -4.625,4.3c-1.997,1.225 -4.261,1.837 -6.794,1.837c-3.221,-0 -6.066,-0.825 -8.537,-2.474c-2.471,-1.65 -4.41,-3.845 -5.818,-6.584c-1.407,-2.74 -2.111,-5.694 -2.111,-8.86c-0,-3.723 0.841,-7.094 2.524,-10.112c1.683,-3.018 4.05,-5.417 7.103,-7.198c3.053,-1.78 6.612,-2.67 10.677,-2.67c0.963,-0 1.955,0.077 2.978,0.231c1.023,0.155 1.899,0.347 2.627,0.578c0.709,0.172 1.083,0.259 1.124,0.259c0.308,-0 0.463,-0.486 0.463,-1.457l-0,-10.895c-0,-2.173 -0.295,-3.702 -0.886,-4.588c-0.591,-0.886 -1.53,-1.444 -2.819,-1.675c-0.613,-0.147 -0.919,-0.569 -0.919,-1.265c-0,-0.646 0.277,-1.04 0.833,-1.181c2.282,-0.538 4.421,-1.143 6.416,-1.815c1.996,-0.672 3.618,-1.275 4.868,-1.811c0.58,-0.274 0.994,-0.441 1.243,-0.501c0.249,-0.061 0.415,-0.091 0.499,-0.091c0.536,0 0.817,0.284 0.843,0.851c-0,-0.003 -0.036,0.335 -0.106,1.012c-0.071,0.677 -0.148,1.608 -0.231,2.794c-0.083,1.186 -0.141,2.536 -0.174,4.052l-0.285,42.112c0,1.959 0.144,3.369 0.432,4.23c0.289,0.862 0.782,1.292 1.479,1.292c0.288,0 0.666,-0.021 1.132,-0.063c0.467,-0.041 1.265,-0.107 2.395,-0.196c0.878,-0.058 1.318,0.234 1.318,0.874c-0,0.435 -0.162,0.874 -0.484,1.317c-0.323,0.444 -0.629,0.665 -0.917,0.665c-1.93,0.231 -3.911,0.594 -5.942,1.09c-2.031,0.495 -4.087,1.159 -6.167,1.992c-0.398,0.199 -0.701,0.336 -0.908,0.409c-0.208,0.073 -0.398,0.11 -0.571,0.11Zm-8.064,-5.878c1.054,0 2.254,-0.278 3.6,-0.834c1.346,-0.556 2.471,-1.325 3.376,-2.307l-0.01,-17.984c0,-1.175 -0.407,-2.353 -1.221,-3.535c-0.814,-1.181 -1.878,-2.16 -3.193,-2.936c-1.315,-0.777 -2.722,-1.165 -4.22,-1.165c-1.357,-0 -2.704,0.506 -4.043,1.519c-1.338,1.013 -2.454,2.55 -3.347,4.612c-0.893,2.061 -1.34,4.705 -1.34,7.932c0,2.651 0.331,4.907 0.994,6.768c0.663,1.861 1.518,3.373 2.565,4.538c1.047,1.164 2.178,2.02 3.394,2.569c1.216,0.549 2.365,0.823 3.445,0.823Z" style="fill:#256ba2;fill-rule:nonzero;"/><path d="M343.597,75.411c-3.138,-0 -5.92,-0.81 -8.346,-2.429c-2.426,-1.619 -4.333,-3.855 -5.722,-6.708c-1.389,-2.852 -2.084,-6.103 -2.084,-9.753c0,-3.533 0.82,-6.748 2.458,-9.643c1.638,-2.896 3.836,-5.211 6.593,-6.945c2.757,-1.734 5.792,-2.601 9.105,-2.601c2.401,-0 4.557,0.508 6.471,1.525c1.913,1.017 3.429,2.394 4.548,4.132c1.12,1.737 1.679,3.719 1.679,5.947c0,2.039 -0.88,3.059 -2.64,3.059l-17.621,-0c-0.807,-0 -1.384,0.224 -1.733,0.672c-0.348,0.448 -0.522,1.258 -0.522,2.431c-0,2.386 0.525,4.558 1.577,6.517c1.052,1.959 2.475,3.513 4.27,4.661c1.795,1.149 3.823,1.723 6.085,1.723c1.697,0 3.251,-0.323 4.663,-0.97c1.412,-0.647 2.76,-1.557 4.045,-2.729c0.199,-0.194 0.388,-0.35 0.567,-0.467c0.178,-0.118 0.354,-0.177 0.527,-0.177c0.556,-0 0.833,0.335 0.833,1.006c0,0.778 -0.328,1.75 -0.984,2.917c-0.674,1.349 -1.664,2.625 -2.969,3.828c-1.305,1.202 -2.876,2.171 -4.713,2.904c-1.837,0.733 -3.866,1.1 -6.087,1.1Zm-5.481,-26.713l6.059,0c1.541,0 2.683,-0.029 3.425,-0.086c0.742,-0.058 1.447,-0.173 2.116,-0.346c0.288,-0.09 0.499,-0.349 0.633,-0.777c0.134,-0.427 0.201,-0.929 0.201,-1.506c-0,-1.575 -0.592,-2.89 -1.776,-3.945c-1.184,-1.055 -2.642,-1.582 -4.374,-1.582c-1.23,-0 -2.421,0.357 -3.572,1.071c-1.15,0.715 -2.095,1.617 -2.833,2.706c-0.737,1.09 -1.091,2.211 -1.059,3.363c-0,0.735 0.393,1.102 1.18,1.102Z" style="fill:#256ba2;fill-rule:nonzero;"/><path d="M261.646,74.421c-0.397,-0 -0.785,-0.089 -1.162,-0.268c-0.378,-0.179 -0.567,-0.47 -0.567,-0.873c0,-0.435 0.203,-0.771 0.61,-1.007c0.406,-0.236 0.866,-0.441 1.378,-0.614c0.838,-0.288 1.62,-0.619 2.345,-0.994c0.725,-0.374 1.087,-1.138 1.087,-2.291l0,-19.391c0,-1.334 -0.173,-2.497 -0.519,-3.488c-0.345,-0.991 -1.125,-1.586 -2.337,-1.785c-0.231,-0.057 -0.442,-0.188 -0.634,-0.393c-0.192,-0.205 -0.288,-0.543 -0.288,-1.015c0,-0.735 0.279,-1.176 0.835,-1.324c1.461,-0.371 2.874,-0.788 4.24,-1.252c1.365,-0.465 2.662,-0.978 3.889,-1.541c1.227,-0.564 2.375,-1.146 3.444,-1.749c0.179,-0.089 0.342,-0.184 0.489,-0.287c0.147,-0.102 0.307,-0.153 0.479,-0.153c0.473,0 0.71,0.281 0.71,0.843c-0,0.435 -0.073,1.224 -0.217,2.368c-0.144,1.144 -0.216,2.119 -0.216,2.926c0,0.576 0.058,0.922 0.173,1.037l0.173,0c1.611,-1.584 3.473,-2.954 5.586,-4.107c2.113,-1.154 4.603,-1.731 7.47,-1.731c1.884,-0 3.558,0.565 5.02,1.696c1.462,1.131 2.591,2.712 3.386,4.743l0.355,0c1.749,-1.956 3.741,-3.519 5.976,-4.687c2.236,-1.168 4.718,-1.752 7.447,-1.752c1.838,-0 3.446,0.528 4.825,1.585c1.379,1.057 2.463,2.508 3.252,4.352c0.79,1.844 1.184,3.949 1.184,6.315l0,18.838c0,1.152 0.356,1.908 1.068,2.267c0.712,0.358 1.5,0.682 2.364,0.97c0.513,0.173 0.949,0.378 1.308,0.614c0.359,0.236 0.538,0.572 0.538,1.007c0,0.377 -0.145,0.662 -0.437,0.853c-0.291,0.192 -0.674,0.288 -1.15,0.288c-1.152,-0 -2.172,-0.043 -3.059,-0.13c-0.888,-0.086 -1.74,-0.158 -2.556,-0.216c-0.817,-0.057 -1.744,-0.086 -2.781,-0.086c-0.98,-0 -1.858,0.029 -2.634,0.086c-0.777,0.058 -1.575,0.13 -2.393,0.216c-0.818,0.087 -1.804,0.13 -2.956,0.13c-0.424,-0 -0.786,-0.096 -1.087,-0.288c-0.301,-0.191 -0.452,-0.476 -0.452,-0.853c0,-0.461 0.172,-0.81 0.515,-1.046c0.343,-0.237 0.771,-0.428 1.283,-0.575c0.827,-0.23 1.503,-0.531 2.027,-0.903c0.524,-0.371 0.786,-1.038 0.786,-2.001l0,-17.866c0,-1.415 -0.238,-2.678 -0.713,-3.791c-0.475,-1.112 -1.129,-2 -1.96,-2.664c-0.831,-0.664 -1.769,-0.996 -2.815,-0.996c-0.966,-0 -1.949,0.165 -2.95,0.495c-1.001,0.33 -1.97,0.879 -2.907,1.648c-1.074,0.888 -1.611,2.376 -1.611,4.465l0,18.376c0,1.152 0.29,1.914 0.869,2.286c0.579,0.372 1.3,0.689 2.165,0.951c0.513,0.147 0.949,0.345 1.308,0.594c0.358,0.25 0.538,0.592 0.538,1.027c-0,0.377 -0.152,0.662 -0.457,0.853c-0.304,0.192 -0.681,0.288 -1.13,0.288c-1.153,-0 -2.139,-0.043 -2.961,-0.13c-0.821,-0.086 -1.613,-0.158 -2.377,-0.216c-0.763,-0.057 -1.663,-0.086 -2.701,-0.086c-0.979,-0 -1.857,0.029 -2.634,0.086c-0.777,0.058 -1.574,0.13 -2.392,0.216c-0.818,0.087 -1.803,0.13 -2.956,0.13c-0.397,-0 -0.753,-0.096 -1.067,-0.288c-0.314,-0.191 -0.471,-0.476 -0.471,-0.853c0,-0.461 0.185,-0.803 0.553,-1.027c0.369,-0.223 0.784,-0.421 1.245,-0.594c0.8,-0.257 1.476,-0.564 2.026,-0.922c0.551,-0.359 0.826,-1.019 0.826,-1.982l0,-17.866c0,-1.415 -0.238,-2.67 -0.713,-3.766c-0.475,-1.097 -1.121,-1.977 -1.936,-2.641c-0.815,-0.665 -1.746,-0.997 -2.792,-0.997c-0.965,-0 -1.949,0.157 -2.95,0.471c-1.001,0.315 -2.001,0.84 -3.001,1.578c-1.017,0.741 -1.526,2.181 -1.526,4.322l0,18.566c0,1.058 0.253,1.79 0.758,2.196c0.506,0.406 1.191,0.753 2.055,1.041c0.461,0.173 0.876,0.371 1.245,0.594c0.369,0.224 0.553,0.566 0.553,1.027c-0,0.345 -0.15,0.622 -0.451,0.83c-0.301,0.207 -0.663,0.311 -1.087,0.311c-1.153,-0 -2.14,-0.043 -2.961,-0.13c-0.821,-0.086 -1.599,-0.158 -2.334,-0.216c-0.734,-0.057 -1.62,-0.086 -2.658,-0.086c-0.979,-0 -1.89,0.029 -2.733,0.086c-0.843,0.058 -1.714,0.13 -2.615,0.216c-0.9,0.087 -1.927,0.13 -3.079,0.13Z" style="fill:#256ba2;fill-rule:nonzero;"/></g><g id="_." serif:id="."><path d="M248.521,76.323c-1.68,-0 -3.138,-0.619 -4.374,-1.855c-1.235,-1.236 -1.853,-2.694 -1.853,-4.373c-0,-1.801 0.618,-3.313 1.853,-4.536c1.236,-1.223 2.694,-1.834 4.374,-1.834c1.801,-0 3.313,0.611 4.536,1.834c1.223,1.223 1.835,2.735 1.835,4.536c-0,1.679 -0.612,3.137 -1.835,4.373c-1.223,1.236 -2.735,1.855 -4.536,1.855Z" style="fill:#256ba2;fill-rule:nonzero;"/></g><g id="tales"><path d="M223.917,75.372c-1.881,-0 -3.671,-0.242 -5.37,-0.726c-1.698,-0.484 -3.222,-1.232 -4.571,-2.243c-0.446,-0.792 -0.765,-2.056 -0.957,-3.792c-0.191,-1.736 -0.284,-3.443 -0.278,-5.12c-0,-0.646 0.501,-0.969 1.504,-0.969c0.389,0 0.732,0.115 1.029,0.344c0.296,0.229 0.489,0.475 0.578,0.737c0.971,2.539 2.206,4.58 3.706,6.123c1.5,1.543 3.212,2.314 5.136,2.314c1.577,-0 2.829,-0.507 3.756,-1.519c0.928,-1.013 1.391,-2.197 1.391,-3.551c0,-1.524 -0.566,-2.809 -1.698,-3.853c-1.132,-1.045 -2.678,-2.12 -4.637,-3.225c-1.769,-0.989 -3.354,-2.023 -4.754,-3.102c-1.4,-1.079 -2.508,-2.322 -3.325,-3.728c-0.817,-1.405 -1.225,-3.066 -1.225,-4.982c-0,-2.13 0.551,-3.999 1.653,-5.608c1.102,-1.609 2.644,-2.876 4.626,-3.801c1.983,-0.925 4.27,-1.388 6.863,-1.388c1.856,0 3.51,0.197 4.964,0.59c1.453,0.394 2.484,0.792 3.092,1.196c0.461,0.602 0.834,1.659 1.119,3.172c0.285,1.513 0.428,3.112 0.428,4.797c-0,0.531 -0.447,0.796 -1.34,0.796c-0.377,-0 -0.764,-0.12 -1.16,-0.36c-0.396,-0.239 -0.652,-0.49 -0.767,-0.752c-0.749,-2.123 -1.702,-3.728 -2.857,-4.816c-1.155,-1.088 -2.489,-1.631 -4.001,-1.631c-1.346,-0 -2.55,0.416 -3.61,1.248c-1.06,0.833 -1.59,1.989 -1.59,3.471c-0,1.23 0.513,2.34 1.538,3.33c1.026,0.99 2.485,2.004 4.379,3.044c3.595,1.933 6.206,3.777 7.832,5.53c1.627,1.754 2.44,4.095 2.44,7.025c0,3.524 -1.213,6.313 -3.639,8.367c-2.426,2.055 -5.845,3.082 -10.255,3.082Z" style="fill:#256ba2;fill-rule:nonzero;"/><path d="M194.84,75.411c-3.138,-0 -5.92,-0.81 -8.346,-2.429c-2.426,-1.619 -4.333,-3.855 -5.722,-6.708c-1.389,-2.852 -2.083,-6.103 -2.083,-9.753c-0,-3.533 0.819,-6.748 2.457,-9.643c1.638,-2.896 3.836,-5.211 6.593,-6.945c2.757,-1.734 5.792,-2.601 9.105,-2.601c2.401,-0 4.558,0.508 6.471,1.525c1.913,1.017 3.43,2.394 4.549,4.132c1.119,1.737 1.678,3.719 1.678,5.947c0,2.039 -0.88,3.059 -2.64,3.059l-17.621,-0c-0.806,-0 -1.384,0.224 -1.733,0.672c-0.348,0.448 -0.522,1.258 -0.522,2.431c-0,2.386 0.526,4.558 1.577,6.517c1.052,1.959 2.475,3.513 4.27,4.661c1.795,1.149 3.823,1.723 6.085,1.723c1.697,0 3.252,-0.323 4.664,-0.97c1.411,-0.647 2.76,-1.557 4.045,-2.729c0.198,-0.194 0.387,-0.35 0.566,-0.467c0.179,-0.118 0.355,-0.177 0.527,-0.177c0.556,-0 0.834,0.335 0.834,1.006c-0,0.778 -0.328,1.75 -0.985,2.917c-0.674,1.349 -1.664,2.625 -2.969,3.828c-1.305,1.202 -2.876,2.171 -4.713,2.904c-1.837,0.733 -3.866,1.1 -6.087,1.1Zm-5.48,-26.713l6.058,0c1.542,0 2.683,-0.029 3.425,-0.086c0.742,-0.058 1.448,-0.173 2.117,-0.346c0.288,-0.09 0.499,-0.349 0.632,-0.777c0.134,-0.427 0.201,-0.929 0.201,-1.506c-0,-1.575 -0.592,-2.89 -1.776,-3.945c-1.184,-1.055 -2.642,-1.582 -4.373,-1.582c-1.231,-0 -2.422,0.357 -3.572,1.071c-1.151,0.715 -2.095,1.617 -2.833,2.706c-0.738,1.09 -1.091,2.211 -1.06,3.363c0,0.735 0.394,1.102 1.181,1.102Z" style="fill:#256ba2;fill-rule:nonzero;"/><path d="M158.96,74.421c-0.447,-0 -0.847,-0.083 -1.2,-0.249c-0.353,-0.165 -0.529,-0.437 -0.529,-0.814c-0,-0.461 0.192,-0.808 0.577,-1.042c0.385,-0.234 0.855,-0.453 1.411,-0.657c0.864,-0.288 1.652,-0.603 2.364,-0.946c0.712,-0.343 1.068,-1.122 1.068,-2.339l-0,-42.184c-0,-1.608 -0.239,-2.982 -0.717,-4.122c-0.478,-1.139 -1.438,-1.853 -2.878,-2.141c-0.557,-0.115 -0.835,-0.537 -0.835,-1.265c-0,-0.672 0.249,-1.066 0.748,-1.181c1.466,-0.314 2.96,-0.722 4.483,-1.223c1.523,-0.501 2.966,-1.017 4.329,-1.547c1.363,-0.53 2.489,-0.952 3.38,-1.267c0.389,-0.146 0.688,-0.22 0.898,-0.22c0.274,0 0.462,0.096 0.564,0.288c0.103,0.192 0.154,0.392 0.154,0.602c0,0.456 -0.077,1.328 -0.231,2.616c-0.155,1.288 -0.248,3.035 -0.279,5.242l-0,46.308c-0,1.215 0.356,1.995 1.067,2.338c0.712,0.343 1.5,0.658 2.365,0.947c0.555,0.204 1.025,0.423 1.41,0.656c0.385,0.233 0.578,0.58 0.578,1.041c-0,0.378 -0.177,0.65 -0.53,0.816c-0.353,0.166 -0.752,0.248 -1.199,0.248c-1.126,0 -2.156,-0.035 -3.088,-0.106c-0.932,-0.07 -1.836,-0.127 -2.71,-0.168c-0.874,-0.042 -1.83,-0.063 -2.867,-0.063c-0.98,-0 -1.89,0.029 -2.73,0.086c-0.84,0.058 -1.696,0.13 -2.567,0.216c-0.872,0.087 -1.884,0.13 -3.036,0.13Z" style="fill:#256ba2;fill-rule:nonzero;"/><path d="M132.117,75.372c-1.385,-0 -2.698,-0.38 -3.939,-1.139c-1.24,-0.759 -2.244,-1.738 -3.012,-2.939c-0.768,-1.2 -1.152,-2.445 -1.152,-3.737c-0,-1.938 0.577,-3.521 1.731,-4.749c1.153,-1.228 2.891,-2.337 5.213,-3.327l8.057,-3.441c1.152,-0.493 1.853,-0.935 2.102,-1.328c0.25,-0.394 0.388,-1.151 0.414,-2.271l0.124,-5.104c0.058,-1.594 -0.273,-2.883 -0.991,-3.867c-0.719,-0.984 -1.787,-1.476 -3.205,-1.476c-0.769,-0 -1.554,0.152 -2.355,0.456c-0.801,0.305 -1.426,0.671 -1.877,1.1c-0.25,0.23 -0.417,0.529 -0.501,0.895c-0.083,0.366 -0.125,0.744 -0.125,1.136c-0,0.294 0.022,0.657 0.067,1.088c0.045,0.431 0.068,0.793 0.068,1.086c-0,0.352 -0.432,0.788 -1.295,1.31c-0.863,0.522 -1.844,0.985 -2.943,1.392c-1.1,0.406 -2.032,0.609 -2.799,0.609c-0.383,-0 -0.701,-0.136 -0.953,-0.406c-0.252,-0.271 -0.378,-0.617 -0.378,-1.038c-0,-0.922 0.31,-1.861 0.932,-2.815c0.621,-0.955 1.59,-1.973 2.906,-3.053c1.452,-1.242 3.036,-2.34 4.75,-3.294c1.714,-0.954 3.4,-1.714 5.056,-2.279c1.657,-0.566 3.093,-0.849 4.309,-0.849c2.74,-0 4.953,0.909 6.64,2.727c1.688,1.817 2.486,4.186 2.396,7.105l-0.432,18.557c-0.057,1.274 0.185,2.341 0.727,3.2c0.542,0.86 1.226,1.29 2.053,1.29c1.219,0 2.206,-0.348 2.96,-1.045c0.225,-0.225 0.424,-0.338 0.597,-0.338c0.288,0 0.527,0.095 0.715,0.283c0.189,0.189 0.283,0.427 0.283,0.715c0,0.667 -0.46,1.459 -1.379,2.377c-1.017,1.018 -2.114,1.8 -3.291,2.348c-1.177,0.547 -2.353,0.821 -3.529,0.821c-3.031,-0 -5.514,-1.593 -7.45,-4.78l-0.212,0c-1.902,1.683 -3.653,2.9 -5.256,3.652c-1.602,0.752 -3.277,1.128 -5.026,1.128Zm4.776,-5.147c0.804,-0 1.483,-0.132 2.036,-0.396c0.553,-0.264 1.051,-0.649 1.494,-1.156c0.225,-0.257 0.407,-0.59 0.545,-1.001c0.138,-0.41 0.221,-0.973 0.247,-1.687l0.22,-5.567c0.026,-0.571 -0.034,-0.96 -0.181,-1.169c-0.147,-0.209 -0.362,-0.314 -0.644,-0.314c-0.116,0 -0.278,0.021 -0.487,0.063c-0.209,0.042 -0.464,0.134 -0.767,0.275c-2.135,0.905 -3.666,1.837 -4.594,2.796c-0.928,0.96 -1.391,2.215 -1.391,3.765c-0,1.593 0.383,2.723 1.149,3.39c0.766,0.667 1.557,1.001 2.373,1.001Z" style="fill:#256ba2;fill-rule:nonzero;"/><path d="M112.245,75.372c-3.489,-0 -6.129,-0.928 -7.919,-2.784c-1.79,-1.855 -2.686,-4.53 -2.686,-8.025l0,-19.958c0,-0.493 -0.188,-0.848 -0.566,-1.065c-0.378,-0.218 -1.095,-0.342 -2.152,-0.374l-0.947,0c-0.351,0 -0.651,-0.282 -0.901,-0.847c-0.249,-0.565 -0.374,-1.097 -0.374,-1.595c0,-0.115 0.055,-0.272 0.164,-0.471c0.109,-0.199 0.241,-0.327 0.394,-0.385c1.311,-0.617 2.655,-1.423 4.034,-2.42c1.378,-0.997 2.686,-2.027 3.924,-3.09c1.238,-1.064 2.243,-1.959 3.015,-2.688c0.383,-0.32 0.707,-0.589 0.972,-0.807c0.265,-0.217 0.589,-0.326 0.973,-0.326c0.447,0 0.791,0.089 1.034,0.268c0.244,0.179 0.321,0.581 0.231,1.206l-0.526,4.698c-0.058,0.697 0.102,1.169 0.479,1.415c0.377,0.246 0.925,0.369 1.642,0.369l10.139,0c0.168,0 0.338,0.196 0.511,0.586c0.173,0.391 0.259,0.782 0.259,1.174c-0,0.74 -0.102,1.434 -0.307,2.083c-0.205,0.648 -0.439,0.972 -0.701,0.972l-8.223,0c-1.346,0 -2.259,0.147 -2.738,0.441c-0.48,0.294 -0.72,0.906 -0.72,1.837l0,16.553c0,2.526 0.498,4.444 1.493,5.754c0.996,1.31 2.368,1.964 4.116,1.964c1.64,0 2.873,-0.153 3.7,-0.46c0.827,-0.307 1.583,-0.641 2.268,-1.001c0.18,-0.115 0.343,-0.173 0.489,-0.173c0.262,0 0.46,0.162 0.595,0.484c0.134,0.323 0.201,0.692 0.201,1.107c-0,0.32 -0.563,0.936 -1.688,1.848c-1.125,0.912 -2.586,1.758 -4.382,2.539c-1.797,0.78 -3.731,1.171 -5.803,1.171Z" style="fill:#256ba2;fill-rule:nonzero;"/></g></g></svg>